<mxfile host="app.diagrams.net" modified="2024-03-12T17:51:51.408Z" agent="Mozilla/5.0 (Windows NT 10.0; Win64; x64) AppleWebKit/537.36 (KHTML, like Gecko) Chrome/121.0.0.0 Safari/537.36" etag="tzQusXt3_TCwYJTnck8a" version="24.0.5" type="device">
  <diagram id="C5RBs43oDa-KdzZeNtuy" name="Page-1">
    <mxGraphModel dx="1434" dy="746" grid="0" gridSize="10" guides="1" tooltips="1" connect="1" arrows="1" fold="1" page="1" pageScale="1" pageWidth="850" pageHeight="1100" math="0" shadow="0">
      <root>
        <mxCell id="WIyWlLk6GJQsqaUBKTNV-0" />
        <mxCell id="WIyWlLk6GJQsqaUBKTNV-1" parent="WIyWlLk6GJQsqaUBKTNV-0" />
        <mxCell id="4zz01UE6X6AOoQdCohR7-57" value="&lt;font style=&quot;font-size: 13px;&quot;&gt;&lt;div style=&quot;text-align: center;&quot;&gt;&lt;b style=&quot;&quot;&gt;&lt;u style=&quot;&quot;&gt;&lt;font style=&quot;font-size: 14px;&quot;&gt;2010&lt;/font&gt;&lt;/u&gt;&lt;/b&gt;&lt;/div&gt;&lt;div style=&quot;text-align: center;&quot;&gt;&lt;b&gt;MLR model&amp;nbsp;&lt;/b&gt;&lt;/div&gt;&lt;div style=&quot;text-align: center;&quot;&gt;&lt;b&gt;spatial evaluation&lt;/b&gt;&lt;/div&gt;&lt;/font&gt;&lt;div style=&quot;font-size: 9px;&quot;&gt;&lt;div style=&quot;&quot;&gt;&lt;div style=&quot;text-align: center;&quot;&gt;&lt;font style=&quot;font-size: 9px;&quot;&gt;&amp;nbsp; - 2010 estimates&amp;nbsp;&lt;/font&gt;&lt;span style=&quot;background-color: initial;&quot;&gt;compared to independent 2010&amp;nbsp;&lt;/span&gt;&lt;span style=&quot;background-color: initial;&quot;&gt;reference ESA CCI AGB dataset&lt;/span&gt;&lt;/div&gt;&lt;div style=&quot;text-align: center;&quot;&gt;&lt;font style=&quot;font-size: 9px;&quot;&gt;&amp;nbsp;- Coef. of determination (R&lt;sup&gt;2&lt;/sup&gt;)&lt;/font&gt;&lt;/div&gt;&lt;div style=&quot;text-align: center;&quot;&gt;&amp;nbsp; &amp;nbsp; &amp;nbsp; - Root mean squared error&amp;nbsp;&lt;span style=&quot;background-color: initial;&quot;&gt;(RMSE)&lt;/span&gt;&lt;/div&gt;&lt;/div&gt;&lt;/div&gt;" style="ellipse;whiteSpace=wrap;html=1;aspect=fixed;align=left;" parent="WIyWlLk6GJQsqaUBKTNV-1" vertex="1">
          <mxGeometry x="336" y="396" width="140" height="140" as="geometry" />
        </mxCell>
        <mxCell id="4zz01UE6X6AOoQdCohR7-0" value="C- and X-band VOD (VODCA v1)" style="rounded=0;whiteSpace=wrap;html=1;" parent="WIyWlLk6GJQsqaUBKTNV-1" vertex="1">
          <mxGeometry x="132" y="211" width="151" height="40" as="geometry" />
        </mxCell>
        <mxCell id="4zz01UE6X6AOoQdCohR7-1" value="Multispectral VIs&amp;nbsp;&lt;div&gt;(VARI, NDVI, NIRv, LAI)&amp;nbsp;&lt;div&gt;(MODIS MCD43A4.006)&lt;/div&gt;&lt;/div&gt;" style="rounded=0;whiteSpace=wrap;html=1;" parent="WIyWlLk6GJQsqaUBKTNV-1" vertex="1">
          <mxGeometry x="132" y="261" width="151" height="60" as="geometry" />
        </mxCell>
        <mxCell id="4zz01UE6X6AOoQdCohR7-2" value="Independent reference AGB&amp;nbsp;&lt;span style=&quot;background-color: initial;&quot;&gt;(ESA CCI)&lt;/span&gt;" style="rounded=0;whiteSpace=wrap;html=1;" parent="WIyWlLk6GJQsqaUBKTNV-1" vertex="1">
          <mxGeometry x="132" y="331" width="100" height="60" as="geometry" />
        </mxCell>
        <mxCell id="4zz01UE6X6AOoQdCohR7-3" value="&lt;div&gt;&lt;font style=&quot;font-size: 11px;&quot;&gt;&lt;b&gt;&lt;br&gt;&lt;/b&gt;&lt;/font&gt;&lt;/div&gt;&lt;font style=&quot;font-size: 13px;&quot;&gt;&lt;div style=&quot;&quot;&gt;&lt;font style=&quot;font-size: 14px;&quot;&gt;&lt;b style=&quot;&quot;&gt;&lt;u&gt;2017&lt;/u&gt;&lt;/b&gt;&lt;/font&gt;&lt;/div&gt;&lt;b style=&quot;&quot;&gt;&lt;font style=&quot;font-size: 13px;&quot;&gt;MLR model&amp;nbsp;&lt;/font&gt;&lt;/b&gt;&lt;/font&gt;&lt;div style=&quot;font-size: 13px;&quot;&gt;&lt;span style=&quot;background-color: initial;&quot;&gt;&lt;b style=&quot;&quot;&gt;&lt;font style=&quot;font-size: 13px;&quot;&gt;spatial calibration&lt;/font&gt;&lt;/b&gt;&lt;/span&gt;&lt;div style=&quot;font-size: 10px;&quot;&gt;&lt;div style=&quot;&quot;&gt;&lt;div style=&quot;text-align: left;&quot;&gt;&lt;span style=&quot;background-color: initial;&quot;&gt;&amp;nbsp; &amp;nbsp; - AIC analysis&lt;/span&gt;&lt;/div&gt;&lt;div style=&quot;text-align: left;&quot;&gt;&lt;font style=&quot;font-size: 10px;&quot;&gt;&amp;nbsp; &amp;nbsp; - Input variable&amp;nbsp;&lt;/font&gt;&lt;span style=&quot;background-color: initial;&quot;&gt;collinearity&lt;/span&gt;&lt;/div&gt;&lt;div style=&quot;text-align: left;&quot;&gt;&lt;font style=&quot;font-size: 10px;&quot;&gt;&amp;nbsp; &amp;nbsp; &amp;nbsp; - VIF&lt;/font&gt;&lt;/div&gt;&lt;div style=&quot;&quot;&gt;&lt;br&gt;&lt;/div&gt;&lt;/div&gt;&lt;/div&gt;&lt;/div&gt;" style="ellipse;whiteSpace=wrap;html=1;aspect=fixed;" parent="WIyWlLk6GJQsqaUBKTNV-1" vertex="1">
          <mxGeometry x="336" y="221" width="140" height="140" as="geometry" />
        </mxCell>
        <mxCell id="4zz01UE6X6AOoQdCohR7-5" value="" style="endArrow=classic;html=1;rounded=0;exitX=1;exitY=0.5;exitDx=0;exitDy=0;entryX=0;entryY=0.5;entryDx=0;entryDy=0;" parent="WIyWlLk6GJQsqaUBKTNV-1" source="4zz01UE6X6AOoQdCohR7-1" target="4zz01UE6X6AOoQdCohR7-3" edge="1">
          <mxGeometry width="50" height="50" relative="1" as="geometry">
            <mxPoint x="260" y="301" as="sourcePoint" />
            <mxPoint x="325" y="291" as="targetPoint" />
          </mxGeometry>
        </mxCell>
        <mxCell id="4zz01UE6X6AOoQdCohR7-6" value="" style="endArrow=classic;html=1;rounded=0;exitX=1;exitY=0.5;exitDx=0;exitDy=0;entryX=0;entryY=0.5;entryDx=0;entryDy=0;" parent="WIyWlLk6GJQsqaUBKTNV-1" source="4zz01UE6X6AOoQdCohR7-0" target="4zz01UE6X6AOoQdCohR7-3" edge="1">
          <mxGeometry width="50" height="50" relative="1" as="geometry">
            <mxPoint x="260" y="230" as="sourcePoint" />
            <mxPoint x="326" y="281" as="targetPoint" />
          </mxGeometry>
        </mxCell>
        <mxCell id="4zz01UE6X6AOoQdCohR7-7" value="" style="endArrow=classic;html=1;rounded=0;entryX=0;entryY=0.5;entryDx=0;entryDy=0;exitX=1;exitY=0.5;exitDx=0;exitDy=0;" parent="WIyWlLk6GJQsqaUBKTNV-1" source="diFt9c48KUzkSeSEOlh2-5" target="4zz01UE6X6AOoQdCohR7-3" edge="1">
          <mxGeometry width="50" height="50" relative="1" as="geometry">
            <mxPoint x="303" y="345" as="sourcePoint" />
            <mxPoint x="326" y="311" as="targetPoint" />
          </mxGeometry>
        </mxCell>
        <mxCell id="4zz01UE6X6AOoQdCohR7-12" value="&lt;b&gt;AGB&lt;sub&gt;VM&lt;/sub&gt;&lt;/b&gt;&lt;div&gt;2003-2017&lt;/div&gt;" style="shape=parallelogram;perimeter=parallelogramPerimeter;whiteSpace=wrap;html=1;fixedSize=1;" parent="WIyWlLk6GJQsqaUBKTNV-1" vertex="1">
          <mxGeometry x="346" y="598" width="120" height="60" as="geometry" />
        </mxCell>
        <mxCell id="4zz01UE6X6AOoQdCohR7-26" value="" style="endArrow=classic;html=1;rounded=0;entryX=0;entryY=0.5;entryDx=0;entryDy=0;" parent="WIyWlLk6GJQsqaUBKTNV-1" edge="1">
          <mxGeometry width="50" height="50" relative="1" as="geometry">
            <mxPoint x="476" y="290.64" as="sourcePoint" />
            <mxPoint x="515" y="291" as="targetPoint" />
          </mxGeometry>
        </mxCell>
        <mxCell id="4zz01UE6X6AOoQdCohR7-31" value="" style="endArrow=classic;html=1;rounded=0;exitX=0.5;exitY=1;exitDx=0;exitDy=0;entryX=0.5;entryY=0;entryDx=0;entryDy=0;" parent="WIyWlLk6GJQsqaUBKTNV-1" source="4zz01UE6X6AOoQdCohR7-12" target="4zz01UE6X6AOoQdCohR7-32" edge="1">
          <mxGeometry width="50" height="50" relative="1" as="geometry">
            <mxPoint x="405.81" y="664" as="sourcePoint" />
            <mxPoint x="405.81" y="704" as="targetPoint" />
          </mxGeometry>
        </mxCell>
        <mxCell id="4zz01UE6X6AOoQdCohR7-32" value="&lt;div&gt;&lt;b style=&quot;font-size: 11px; background-color: initial;&quot;&gt;Temporal sensitivity of estimated AGB to large-scale wildfire disturbance&lt;/b&gt;&lt;br&gt;&lt;/div&gt;&lt;div&gt;&lt;div style=&quot;text-align: left;&quot;&gt;&lt;span style=&quot;font-size: 9px;&quot;&gt;&amp;nbsp; &amp;nbsp;- Mean&amp;nbsp;&lt;/span&gt;&lt;font size=&quot;1&quot;&gt;3-year pre- and&amp;nbsp;&lt;/font&gt;&lt;/div&gt;&lt;div style=&quot;text-align: left;&quot;&gt;&lt;font size=&quot;1&quot;&gt;&amp;nbsp; &amp;nbsp; &amp;nbsp;post-fire AGB anomalies&lt;/font&gt;&lt;/div&gt;&lt;/div&gt;" style="ellipse;whiteSpace=wrap;html=1;aspect=fixed;" parent="WIyWlLk6GJQsqaUBKTNV-1" vertex="1">
          <mxGeometry x="336" y="704" width="140" height="140" as="geometry" />
        </mxCell>
        <mxCell id="4zz01UE6X6AOoQdCohR7-33" value="Remotely sensed, gridded AGB products&amp;nbsp;&lt;div&gt;(Wang et al., 2021; Xu et al., 2021; Liu et al., 2015)&amp;nbsp;&lt;/div&gt;" style="rounded=0;whiteSpace=wrap;html=1;" parent="WIyWlLk6GJQsqaUBKTNV-1" vertex="1">
          <mxGeometry x="132" y="648" width="151" height="60" as="geometry" />
        </mxCell>
        <mxCell id="4zz01UE6X6AOoQdCohR7-34" value="Large-scale wildfire events 2003-2012&lt;div&gt;(NIFC; CNFDB)&amp;nbsp;&lt;/div&gt;" style="rounded=0;whiteSpace=wrap;html=1;" parent="WIyWlLk6GJQsqaUBKTNV-1" vertex="1">
          <mxGeometry x="132" y="766" width="151" height="55" as="geometry" />
        </mxCell>
        <mxCell id="4zz01UE6X6AOoQdCohR7-35" value="" style="endArrow=classic;html=1;rounded=0;exitX=1;exitY=0.5;exitDx=0;exitDy=0;entryX=0;entryY=0.5;entryDx=0;entryDy=0;" parent="WIyWlLk6GJQsqaUBKTNV-1" source="4zz01UE6X6AOoQdCohR7-33" target="4zz01UE6X6AOoQdCohR7-32" edge="1">
          <mxGeometry width="50" height="50" relative="1" as="geometry">
            <mxPoint x="325" y="724" as="sourcePoint" />
            <mxPoint x="375" y="674" as="targetPoint" />
          </mxGeometry>
        </mxCell>
        <mxCell id="4zz01UE6X6AOoQdCohR7-36" value="" style="endArrow=classic;html=1;rounded=0;exitX=1;exitY=0.5;exitDx=0;exitDy=0;entryX=0;entryY=0.5;entryDx=0;entryDy=0;" parent="WIyWlLk6GJQsqaUBKTNV-1" source="4zz01UE6X6AOoQdCohR7-34" target="4zz01UE6X6AOoQdCohR7-32" edge="1">
          <mxGeometry width="50" height="50" relative="1" as="geometry">
            <mxPoint x="305" y="824" as="sourcePoint" />
            <mxPoint x="355" y="774" as="targetPoint" />
          </mxGeometry>
        </mxCell>
        <mxCell id="4zz01UE6X6AOoQdCohR7-37" value="&lt;div&gt;&lt;b style=&quot;font-size: 11px; background-color: initial;&quot;&gt;Pixel-wise&amp;nbsp;&lt;/b&gt;&lt;br&gt;&lt;/div&gt;&lt;div&gt;&lt;b style=&quot;font-size: 11px; background-color: initial;&quot;&gt;temporal trends&lt;/b&gt;&lt;/div&gt;&lt;div&gt;&lt;div style=&quot;text-align: left;&quot;&gt;&lt;font size=&quot;1&quot;&gt;- %change 2003 vs. 2012&amp;nbsp;&lt;/font&gt;&lt;/div&gt;&lt;div style=&quot;text-align: left;&quot;&gt;&lt;font size=&quot;1&quot;&gt;- Mann-Kendall Sen&#39;s Slope&lt;/font&gt;&lt;/div&gt;&lt;/div&gt;&lt;div style=&quot;text-align: left;&quot;&gt;&lt;font size=&quot;1&quot;&gt;&amp;nbsp; &amp;nbsp;for annual values 2003 -&lt;/font&gt;&lt;/div&gt;&lt;div style=&quot;text-align: left;&quot;&gt;&lt;font size=&quot;1&quot;&gt;&amp;nbsp; &amp;nbsp; 2012&lt;/font&gt;&lt;/div&gt;" style="ellipse;whiteSpace=wrap;html=1;aspect=fixed;" parent="WIyWlLk6GJQsqaUBKTNV-1" vertex="1">
          <mxGeometry x="515" y="704" width="140" height="140" as="geometry" />
        </mxCell>
        <mxCell id="4zz01UE6X6AOoQdCohR7-38" value="" style="endArrow=classic;html=1;rounded=0;entryX=0;entryY=0.5;entryDx=0;entryDy=0;exitX=1;exitY=0.5;exitDx=0;exitDy=0;" parent="WIyWlLk6GJQsqaUBKTNV-1" source="4zz01UE6X6AOoQdCohR7-32" target="4zz01UE6X6AOoQdCohR7-37" edge="1">
          <mxGeometry width="50" height="50" relative="1" as="geometry">
            <mxPoint x="495" y="784" as="sourcePoint" />
            <mxPoint x="515" y="774.02" as="targetPoint" />
          </mxGeometry>
        </mxCell>
        <mxCell id="4zz01UE6X6AOoQdCohR7-39" value="&lt;div&gt;Gridded vegetation cover classes 2010 &amp;amp; 2017&lt;/div&gt;&lt;div&gt;(ESA CCI)&amp;nbsp;&lt;/div&gt;" style="rounded=0;whiteSpace=wrap;html=1;" parent="WIyWlLk6GJQsqaUBKTNV-1" vertex="1">
          <mxGeometry x="132" y="534" width="151" height="50" as="geometry" />
        </mxCell>
        <mxCell id="4zz01UE6X6AOoQdCohR7-43" value="" style="endArrow=classic;html=1;rounded=0;exitX=1;exitY=0.5;exitDx=0;exitDy=0;entryX=0;entryY=0.5;entryDx=0;entryDy=0;" parent="WIyWlLk6GJQsqaUBKTNV-1" source="4zz01UE6X6AOoQdCohR7-39" target="4zz01UE6X6AOoQdCohR7-32" edge="1">
          <mxGeometry width="50" height="50" relative="1" as="geometry">
            <mxPoint x="298" y="711.5" as="sourcePoint" />
            <mxPoint x="348" y="661.5" as="targetPoint" />
          </mxGeometry>
        </mxCell>
        <mxCell id="4zz01UE6X6AOoQdCohR7-45" value="" style="endArrow=classic;html=1;rounded=0;exitX=1;exitY=0.5;exitDx=0;exitDy=0;entryX=0;entryY=0.5;entryDx=0;entryDy=0;" parent="WIyWlLk6GJQsqaUBKTNV-1" source="4zz01UE6X6AOoQdCohR7-12" edge="1">
          <mxGeometry width="50" height="50" relative="1" as="geometry">
            <mxPoint x="466" y="627.63" as="sourcePoint" />
            <mxPoint x="514.9999999999984" y="628.0000000000001" as="targetPoint" />
          </mxGeometry>
        </mxCell>
        <mxCell id="4zz01UE6X6AOoQdCohR7-46" value="&lt;div style=&quot;font-size: 11px;&quot;&gt;&lt;font style=&quot;font-size: 11px;&quot;&gt;&lt;b style=&quot;&quot;&gt;Spatial &amp;amp; temporal inter&lt;/b&gt;&lt;b style=&quot;background-color: initial;&quot;&gt;comparison of AGB&lt;/b&gt;&lt;/font&gt;&lt;/div&gt;&lt;div style=&quot;font-size: 11px;&quot;&gt;&lt;b style=&quot;&quot;&gt;&lt;font style=&quot;font-size: 11px;&quot;&gt;products&lt;/font&gt;&lt;/b&gt;&lt;/div&gt;&lt;div style=&quot;font-size: 9px;&quot;&gt;&lt;div style=&quot;&quot;&gt;&lt;font style=&quot;font-size: 9px;&quot;&gt;- Temporal trends of domain-averaged annual estimates&lt;/font&gt;&lt;/div&gt;&lt;/div&gt;&lt;div style=&quot;font-size: 9px;&quot;&gt;&lt;font style=&quot;font-size: 9px;&quot;&gt;- Statistical distributions of spatial AGB estimates per veg. cover&amp;nbsp;&lt;/font&gt;&lt;/div&gt;&lt;div style=&quot;font-size: 9px;&quot;&gt;&lt;span style=&quot;background-color: initial;&quot;&gt;class (2010)&lt;/span&gt;&lt;/div&gt;" style="ellipse;whiteSpace=wrap;html=1;aspect=fixed;" parent="WIyWlLk6GJQsqaUBKTNV-1" vertex="1">
          <mxGeometry x="515" y="558" width="140" height="140" as="geometry" />
        </mxCell>
        <mxCell id="4zz01UE6X6AOoQdCohR7-53" value="" style="endArrow=classic;html=1;rounded=0;exitX=0;exitY=1;exitDx=0;exitDy=0;entryX=0.5;entryY=0;entryDx=0;entryDy=0;" parent="WIyWlLk6GJQsqaUBKTNV-1" source="4zz01UE6X6AOoQdCohR7-58" edge="1">
          <mxGeometry width="50" height="50" relative="1" as="geometry">
            <mxPoint x="535.5025253169417" y="340.4974746830584" as="sourcePoint" />
            <mxPoint x="406" y="395" as="targetPoint" />
            <Array as="points">
              <mxPoint x="406" y="372" />
            </Array>
          </mxGeometry>
        </mxCell>
        <mxCell id="4zz01UE6X6AOoQdCohR7-58" value="&lt;div&gt;&lt;b&gt;&lt;font style=&quot;font-size: 10px;&quot;&gt;Extend AGB estimates to&amp;nbsp;&lt;/font&gt;&lt;/b&gt;&lt;/div&gt;&lt;div&gt;&lt;b&gt;&lt;font style=&quot;font-size: 10px;&quot;&gt;full&lt;/font&gt;&lt;/b&gt;&lt;b style=&quot;background-color: initial;&quot;&gt;&lt;font style=&quot;font-size: 10px;&quot;&gt;&amp;nbsp;temp. range (2003-2016) by applying coefficients from top 2017 MLR model to respective input variables&lt;/font&gt;&lt;/b&gt;&lt;/div&gt;" style="ellipse;whiteSpace=wrap;html=1;aspect=fixed;align=center;" parent="WIyWlLk6GJQsqaUBKTNV-1" vertex="1">
          <mxGeometry x="515" y="221" width="140" height="140" as="geometry" />
        </mxCell>
        <mxCell id="4zz01UE6X6AOoQdCohR7-60" value="" style="group;fillColor=#E6E6E6;fontColor=#333333;strokeColor=#666666;" parent="WIyWlLk6GJQsqaUBKTNV-1" vertex="1" connectable="0">
          <mxGeometry x="540" y="399" width="91" height="122" as="geometry" />
        </mxCell>
        <mxCell id="4zz01UE6X6AOoQdCohR7-59" value="" style="rounded=0;whiteSpace=wrap;html=1;labelBackgroundColor=none;movable=1;resizable=1;rotatable=1;deletable=1;editable=1;locked=0;connectable=1;" parent="4zz01UE6X6AOoQdCohR7-60" vertex="1">
          <mxGeometry width="91" height="122" as="geometry" />
        </mxCell>
        <mxCell id="4zz01UE6X6AOoQdCohR7-17" value="&lt;font style=&quot;font-size: 9px;&quot;&gt;Data Inputs&lt;/font&gt;" style="rounded=0;whiteSpace=wrap;html=1;" parent="4zz01UE6X6AOoQdCohR7-60" vertex="1">
          <mxGeometry x="6" y="4" width="79" height="20" as="geometry" />
        </mxCell>
        <mxCell id="4zz01UE6X6AOoQdCohR7-18" value="&lt;div style=&quot;font-size: 9px;&quot;&gt;&lt;font style=&quot;font-size: 9px;&quot;&gt;Processes&amp;nbsp;&lt;/font&gt;&lt;/div&gt;&lt;div style=&quot;font-size: 9px;&quot;&gt;&lt;font style=&quot;font-size: 9px;&quot;&gt;or&amp;nbsp;&lt;/font&gt;&lt;/div&gt;&lt;div style=&quot;font-size: 9px;&quot;&gt;&lt;font style=&quot;font-size: 9px;&quot;&gt;analyses&lt;/font&gt;&lt;/div&gt;" style="ellipse;whiteSpace=wrap;html=1;aspect=fixed;" parent="4zz01UE6X6AOoQdCohR7-60" vertex="1">
          <mxGeometry x="15.5" y="27" width="60" height="60" as="geometry" />
        </mxCell>
        <mxCell id="4zz01UE6X6AOoQdCohR7-19" value="&lt;font style=&quot;font-size: 9px;&quot;&gt;Data Outputs&lt;/font&gt;" style="shape=parallelogram;perimeter=parallelogramPerimeter;whiteSpace=wrap;html=1;fixedSize=1;" parent="4zz01UE6X6AOoQdCohR7-60" vertex="1">
          <mxGeometry x="2" y="89" width="86" height="30" as="geometry" />
        </mxCell>
        <mxCell id="4zz01UE6X6AOoQdCohR7-61" value="" style="endArrow=classic;html=1;rounded=0;exitX=0.5;exitY=1;exitDx=0;exitDy=0;entryX=0.5;entryY=0;entryDx=0;entryDy=0;" parent="WIyWlLk6GJQsqaUBKTNV-1" target="4zz01UE6X6AOoQdCohR7-12" edge="1">
          <mxGeometry width="50" height="50" relative="1" as="geometry">
            <mxPoint x="405.72" y="536" as="sourcePoint" />
            <mxPoint x="405.72" y="582" as="targetPoint" />
          </mxGeometry>
        </mxCell>
        <mxCell id="4zz01UE6X6AOoQdCohR7-62" value="" style="endArrow=classic;html=1;rounded=0;exitX=1;exitY=0.5;exitDx=0;exitDy=0;entryX=0;entryY=0.5;entryDx=0;entryDy=0;" parent="WIyWlLk6GJQsqaUBKTNV-1" source="4zz01UE6X6AOoQdCohR7-39" target="4zz01UE6X6AOoQdCohR7-46" edge="1">
          <mxGeometry width="50" height="50" relative="1" as="geometry">
            <mxPoint x="315" y="592" as="sourcePoint" />
            <mxPoint x="500" y="591" as="targetPoint" />
            <Array as="points">
              <mxPoint x="490" y="588" />
            </Array>
          </mxGeometry>
        </mxCell>
        <mxCell id="4zz01UE6X6AOoQdCohR7-63" value="" style="endArrow=classic;html=1;rounded=0;exitX=1;exitY=0.5;exitDx=0;exitDy=0;entryX=0;entryY=0.5;entryDx=0;entryDy=0;" parent="WIyWlLk6GJQsqaUBKTNV-1" source="4zz01UE6X6AOoQdCohR7-33" target="4zz01UE6X6AOoQdCohR7-46" edge="1">
          <mxGeometry width="50" height="50" relative="1" as="geometry">
            <mxPoint x="346" y="646" as="sourcePoint" />
            <mxPoint x="483" y="678" as="targetPoint" />
            <Array as="points">
              <mxPoint x="468" y="678" />
            </Array>
          </mxGeometry>
        </mxCell>
        <mxCell id="4zz01UE6X6AOoQdCohR7-64" value="" style="endArrow=classic;html=1;rounded=0;entryX=0;entryY=0.5;entryDx=0;entryDy=0;exitX=1;exitY=0.5;exitDx=0;exitDy=0;" parent="WIyWlLk6GJQsqaUBKTNV-1" source="diFt9c48KUzkSeSEOlh2-6" target="4zz01UE6X6AOoQdCohR7-46" edge="1">
          <mxGeometry width="50" height="50" relative="1" as="geometry">
            <mxPoint x="300" y="390" as="sourcePoint" />
            <mxPoint x="507" y="573" as="targetPoint" />
            <Array as="points">
              <mxPoint x="331" y="540" />
              <mxPoint x="488" y="569" />
            </Array>
          </mxGeometry>
        </mxCell>
        <mxCell id="diFt9c48KUzkSeSEOlh2-2" value="" style="endArrow=classic;html=1;rounded=0;entryX=0;entryY=0;entryDx=0;entryDy=0;exitX=1;exitY=0.5;exitDx=0;exitDy=0;" edge="1" parent="WIyWlLk6GJQsqaUBKTNV-1" source="diFt9c48KUzkSeSEOlh2-6" target="4zz01UE6X6AOoQdCohR7-57">
          <mxGeometry width="50" height="50" relative="1" as="geometry">
            <mxPoint x="306" y="364" as="sourcePoint" />
            <mxPoint x="353" y="436" as="targetPoint" />
          </mxGeometry>
        </mxCell>
        <mxCell id="diFt9c48KUzkSeSEOlh2-5" value="2017" style="rounded=0;whiteSpace=wrap;html=1;" vertex="1" parent="WIyWlLk6GJQsqaUBKTNV-1">
          <mxGeometry x="232" y="331" width="51" height="30" as="geometry" />
        </mxCell>
        <mxCell id="diFt9c48KUzkSeSEOlh2-6" value="2010" style="rounded=0;whiteSpace=wrap;html=1;" vertex="1" parent="WIyWlLk6GJQsqaUBKTNV-1">
          <mxGeometry x="232" y="361" width="51" height="30" as="geometry" />
        </mxCell>
        <mxCell id="diFt9c48KUzkSeSEOlh2-8" value="&lt;font style=&quot;font-size: 10px;&quot;&gt;log-transformed&lt;/font&gt;" style="text;html=1;align=center;verticalAlign=middle;whiteSpace=wrap;rounded=0;" vertex="1" parent="WIyWlLk6GJQsqaUBKTNV-1">
          <mxGeometry x="292" y="317" width="60" height="30" as="geometry" />
        </mxCell>
      </root>
    </mxGraphModel>
  </diagram>
</mxfile>
